<?xml version="1.0" encoding="utf-8"?>
<!-- Generator: Adobe Illustrator 25.4.1, SVG Export Plug-In . SVG Version: 6.00 Build 0)  -->
<svg version="1.1" id="Calque_1" xmlns="http://www.w3.org/2000/svg" xmlns:xlink="http://www.w3.org/1999/xlink" x="0px" y="0px"
	 viewBox="0 0 52 47" enable-background="new 0 0 52 47" xml:space="preserve">
<rect fill="#E5E5E5" width="52" height="47"/>
<g>
	<g>
		<defs>
			<rect id="SVGID_1_" x="-696" y="-42" width="1440" height="1024"/>
		</defs>
		<clipPath id="SVGID_00000120552950086726160300000004357038700899633569_">
			<use xlink:href="#SVGID_1_"  overflow="visible"/>
		</clipPath>
		<g id="Desktop_-_5" clip-path="url(#SVGID_00000120552950086726160300000004357038700899633569_)">
			<rect x="-696" y="-42" fill="#FFFFFF" width="1440" height="1024"/>
			<g id="_x2E_logo">
				<g id="Group">
					<g id="Group_2">
						<path id="Vector" fill-rule="evenodd" clip-rule="evenodd" fill="#D04F4F" d="M39.5,25.3v9.8H12.4v-9.8
							c-4.4,0-7.8-3.4-7.8-7.8S8,9.8,12.4,9.8c3,0,5.8,1.7,7.1,4.4l3.4-1.7c-1-1.7-2-3.4-3.7-4.4C20.6,5.7,22.9,4,26,4
							c4.4,0,7.8,3.4,7.8,7.8c0,1.4-0.3,2.7-1,4.1l3.4,2c1-1.7,1.7-3.7,1.7-6.1c0-0.7,0-1,0-1.7c0.7-0.3,1.4-0.3,2-0.3
							c4.4,0,7.8,3.4,7.8,7.8S43.9,25.3,39.5,25.3z M39.5,42.9H12.4v-3.7h27.1V42.9z M39.5,6.1c-1,0-2,0.3-3.4,0.3
							C34.1,2.7,30.4,0,26,0s-8.5,2.4-10.2,6.4c-1-0.3-2-0.3-3.4-0.3C6,6.1,0.9,11.2,0.9,17.6c0,5.1,3.4,9.5,7.8,10.8v17.9h34.9
							V28.7C48,27,51.4,23,51.4,17.9C51.4,11.5,45.9,6.1,39.5,6.1z M22.2,31.1h-3.7v-7.4h3.7V31.1z M33.7,31.1H30v-7.4h3.7V31.1z"/>
					</g>
				</g>
			</g>
		</g>
	</g>
</g>
</svg>
